<svg width="150" height="150" viewBox="0 0 150 150" fill="none" xmlns="http://www.w3.org/2000/svg">
<g clip-path="url(#clip0)">
<rect width="150" height="150" rx="8" fill="#FD015E"/>
<g opacity="0.35" clip-path="url(#clip1)">
<path d="M133.697 61.2643L134.027 61.2689V60.552L133.67 60.5547C133.679 60.7903 133.688 61.0279 133.697 61.2643Z" fill="white"/>
<path d="M85.0623 98.8602L87.1645 104.771C87.2546 105.024 87.4326 105.224 87.6576 105.326L92.909 107.692C93.6508 108.026 93.6508 109.208 92.909 109.542L87.6576 111.908C87.4329 112.009 87.2546 112.21 87.1645 112.463L85.0623 118.373C84.7654 119.209 83.7151 119.209 83.4181 118.373L81.3159 112.463C81.2259 112.21 81.0478 112.009 80.8229 111.908L75.5715 109.542C74.8297 109.208 74.8297 108.026 75.5715 107.692L80.8229 105.326C81.0476 105.224 81.2259 105.024 81.3159 104.771L83.4181 98.8602C83.7151 98.0251 84.7654 98.0251 85.0623 98.8602Z" fill="white"/>
<path d="M86.5057 28.4245C87.0938 25.958 85.571 23.4817 83.1045 22.8936C80.638 22.3055 78.1618 23.8282 77.5737 26.2947C76.9855 28.7612 78.5083 31.2375 80.9748 31.8256C83.4413 32.4137 85.9176 30.891 86.5057 28.4245Z" fill="white"/>
<path d="M80.2248 93.7277C81.3182 93.7277 82.2046 92.8413 82.2046 91.7478C82.2046 90.6544 81.3182 89.7679 80.2248 89.7679C79.1313 89.7679 78.2449 90.6544 78.2449 91.7478C78.2449 92.8413 79.1313 93.7277 80.2248 93.7277Z" fill="white"/>
<path d="M148.441 13.2409V10.331C148.441 6.5948 145.402 3.55486 141.665 3.55486H137.161V-3.86383C135.112 -3.86383 136.084 -3.86389 134.67 -3.86389C133.257 -3.86389 134.67 -3.8638 132.043 -3.86383V3.55511H127.538C123.802 3.55511 120.762 6.5948 120.762 10.3313V13.2411C100.757 19.2116 86.1304 37.7762 86.1304 59.6958C86.1304 86.4229 107.874 108.167 134.602 108.167C161.329 108.167 183.073 86.4229 183.073 59.6958C183.073 37.7762 168.446 19.2116 148.441 13.2409ZM174.081 75.7889C173.967 75.8999 173.873 75.9914 173.805 76.0587C170.026 79.2329 165.833 81.391 161.388 82.8855C163.13 75.7311 163.61 68.3843 163.859 61.2311H177.925C177.762 65.8922 176.862 70.3693 175.334 74.547C174.822 75.0667 174.341 75.5356 174.081 75.7889ZM149.786 100.302C145.302 101.985 140.468 102.944 135.425 103.038V89.6353C142.396 89.297 149.807 88.8952 156.931 87.2774C155.587 91.1131 153.759 94.8416 151.255 98.4318C150.753 99.1218 150.269 99.7454 149.786 100.302ZM119.706 100.412C119.134 99.7793 118.554 99.0566 117.949 98.2254C115.482 94.6895 113.674 91.0194 112.336 87.2449C118.949 88.8312 125.723 89.3498 132.354 89.612V102.991C127.932 102.764 123.683 101.872 119.706 100.412ZM94.0293 74.9694C92.4059 70.6713 91.4474 66.0504 91.2788 61.2313H105.352C105.604 68.3506 106.095 75.6579 107.838 82.7729C103.965 81.4261 100.201 79.5886 96.5776 77.0607C95.5919 76.3433 94.7382 75.6637 94.0293 74.9694ZM96.7842 43.7546C100.288 41.31 103.925 39.5129 107.664 38.179C106.195 44.7943 105.758 51.6484 105.434 58.1604H91.2788C91.4144 54.2866 92.0591 50.5404 93.1504 46.9875C94.055 45.9256 95.2335 44.8832 96.7842 43.7546ZM119.221 20.7221C119.671 20.26 120.8 19.1021 121.691 18.3058C125.086 17.2443 128.66 16.5901 132.355 16.4005V31.2115C125.619 31.4832 118.74 32.0262 112.034 33.6932C113.531 29.1456 115.711 24.8555 118.951 20.9984C119.018 20.9301 119.11 20.8361 119.221 20.7221ZM147.146 18.1953C148.066 18.9614 149.468 20.4 149.983 20.9287C150.094 21.0425 150.185 21.1365 150.253 21.2048C153.402 24.9538 155.552 29.1112 157.045 33.5173C149.88 31.901 142.426 31.5091 135.425 31.1698V16.3533C139.492 16.4293 143.424 17.0684 147.146 18.1953ZM174.287 45.0268C174.619 45.3496 175.308 46.0217 175.966 46.7049C177.11 50.3416 177.786 54.1839 177.925 58.1604H163.759C163.428 51.5426 162.971 44.578 161.426 37.8752C165.933 39.3717 170.185 41.5424 174.011 44.7568C174.079 44.8241 174.173 44.9159 174.287 45.0268ZM160.685 58.1604H135.425V34.2444C143.058 34.6147 150.816 35.0305 158.049 36.8842C159.831 43.6848 160.323 50.9567 160.685 58.1604ZM132.355 34.2841V58.1604H108.509C108.864 51.0393 109.334 43.8461 111.043 37.1032C117.894 35.1703 125.054 34.5783 132.355 34.2841ZM108.424 61.2311H132.355V86.5394C125.132 86.2539 118.047 85.6898 111.259 83.8327C109.232 76.5765 108.7 68.9769 108.424 61.2311ZM135.425 86.561V61.2311H160.787C160.515 68.9961 159.998 76.6163 157.987 83.8925C150.777 85.7613 143.043 86.1907 135.425 86.561ZM173.445 40.4572C169.439 37.6403 165.063 35.7278 160.514 34.4076C159.098 29.628 157.018 25.0446 153.91 20.8875C162.356 25.1069 169.24 32.0024 173.445 40.4572ZM125.88 10.331C125.88 9.41677 126.624 8.67301 127.538 8.67301H141.665C142.579 8.67301 143.323 9.41677 143.323 10.331V12.0123C140.493 11.4959 137.579 11.2247 134.602 11.2247C131.625 11.2247 128.71 11.4962 125.88 12.0123L125.88 10.331ZM115.047 21.0105C111.973 25.2171 109.931 29.8494 108.549 34.6721C104.077 36.077 99.7106 38.0622 95.5459 40.8856C99.689 32.3178 106.571 25.3125 115.047 21.0105ZM96.7849 80.8727C100.658 83.2953 104.693 85.0337 108.813 86.2892C110.042 90.2456 111.72 94.1216 114.029 97.8486C106.803 93.9363 100.809 88.0296 96.7849 80.8727ZM155.366 97.7435C157.601 94.0731 159.23 90.2609 160.429 86.3716C164.608 85.148 168.642 83.4256 172.373 80.9536C168.386 88.0107 162.48 93.846 155.366 97.7435Z" fill="white"/>
<path d="M114.601 75.2509C113.317 75.2509 112.21 74.2866 112.062 72.9802C111.907 71.6198 111.785 70.2372 111.698 68.8707C111.609 67.4602 112.679 66.2442 114.089 66.1544C115.5 66.0674 116.716 67.1352 116.806 68.5457C116.887 69.8284 117.003 71.1262 117.147 72.4033C117.307 73.8075 116.297 75.0751 114.893 75.2345C114.795 75.2454 114.698 75.2509 114.601 75.2509Z" fill="white"/>
<path d="M114.702 53.4975C114.614 53.4975 114.526 53.4932 114.436 53.4837C113.031 53.3389 112.008 52.0817 112.153 50.676C112.421 48.0735 112.781 45.3385 113.222 42.5473C113.443 41.1515 114.753 40.1997 116.149 40.4192C117.545 40.6398 118.498 41.9505 118.278 43.3465C117.851 46.0471 117.503 48.6894 117.244 51.2006C117.108 52.5174 115.997 53.4975 114.702 53.4975Z" fill="white"/>
</g>
</g>
<defs>
<clipPath id="clip0">
<rect width="150" height="150" rx="8" fill="white"/>
</clipPath>
<clipPath id="clip1">
<rect width="124" height="124" fill="white" transform="translate(75 -5)"/>
</clipPath>
</defs>
</svg>
