<svg width="155" height="155" viewBox="0 0 155 155" fill="none" xmlns="http://www.w3.org/2000/svg">
<g clip-path="url(#clip0)">
<rect width="155" height="155" rx="8" fill="#2B6FF1"/>
<g opacity="0.35">
<path d="M171.635 -4.48494C160.534 -15.5865 145.774 -21.7 130.075 -21.7C114.375 -21.7 99.6159 -15.5865 88.5151 -4.48494C77.4135 6.6159 71.3 21.3752 71.3 37.0747C71.3 52.7742 77.4135 67.5336 88.5151 78.6346C99.6159 89.7359 114.375 95.8494 130.075 95.8494C145.774 95.8494 160.534 89.7359 171.635 78.6346C182.736 67.5336 188.849 52.7742 188.849 37.0747C188.849 21.3752 182.736 6.6159 171.635 -4.48494ZM130.075 91.1663C100.249 91.1663 75.9832 66.901 75.9832 37.0747C75.9832 7.24841 100.249 -17.0168 130.075 -17.0168C159.901 -17.0168 184.166 7.24865 184.166 37.0747C184.166 66.9008 159.901 91.1663 130.075 91.1663Z" fill="white" stroke="white"/>
<path d="M122.454 20.5029C119.529 15.3379 114.641 12.254 109.378 12.254C104.023 12.254 99.0875 15.4221 96.1758 20.7284C95.5539 21.8623 95.9685 23.2858 97.1024 23.9077C97.4599 24.1038 97.8461 24.1968 98.227 24.1968C99.0539 24.1968 99.8561 23.7576 100.282 22.9813C102.358 19.1966 105.759 16.9374 109.379 16.9374C112.932 16.9374 116.297 19.1332 118.38 22.811C119.017 23.9366 120.447 24.332 121.571 23.6944C122.696 23.0569 123.092 21.6284 122.454 20.5029Z" fill="white" stroke="white"/>
<path d="M159.568 9.52564C157.378 4.19551 153.574 1.01318 149.393 1.01318C142.631 1.01318 137.334 9.19021 137.334 19.6291C137.334 29.2413 141.793 37.0152 147.938 38.114C148.424 38.201 148.914 38.2451 149.393 38.2451C156.155 38.2451 161.452 30.0681 161.452 19.6291C161.452 16.0189 160.801 12.5252 159.568 9.52564ZM144.478 29.8288L144.477 29.8272C143.033 27.375 142.017 23.8437 142.017 19.6291C142.017 11.4186 145.905 5.69656 149.393 5.69656C150.882 5.69656 152.397 6.69596 153.66 8.42889L153.664 8.43326C148.242 10.2769 144.3 17.5922 144.3 26.5953C144.3 27.6875 144.361 28.7684 144.478 29.8288ZM150.003 33.5046C149.334 31.3972 148.983 29.0381 148.983 26.5953C148.983 18.8607 152.433 13.3345 155.75 12.7199C156.419 14.8273 156.769 17.1863 156.769 19.6291C156.769 27.3638 153.319 32.8899 150.003 33.5046Z" fill="white" stroke="white"/>
<path d="M150.681 60.4906H148.105C146.812 60.4906 145.764 61.5391 145.764 62.8322C145.764 64.1252 146.812 65.1738 148.105 65.1738H150.681C151.974 65.1738 153.023 64.1252 153.023 62.8322C153.023 61.5391 151.974 60.4906 150.681 60.4906Z" fill="white" stroke="white"/>
<path d="M172.072 47.8557C171.63 47.2601 170.933 46.9093 170.191 46.9093H89.9586C89.2173 46.9093 88.5195 47.2603 88.078 47.8557C87.6361 48.4512 87.5027 49.2206 87.7176 49.93C90.4146 58.8263 96.0092 66.822 103.471 72.4437C111.188 78.2578 120.387 81.3308 130.075 81.3308C139.762 81.3308 148.961 78.2578 156.678 72.4439C164.14 66.822 169.735 58.8266 172.432 49.9302C172.647 49.2206 172.513 48.4512 172.072 47.8557ZM130.075 76.6479C119.266 76.6479 109.345 72.3748 102.126 65.174H138.973C140.266 65.174 141.315 64.1255 141.315 62.8324C141.315 61.5394 140.266 60.4908 138.973 60.4908H98.1182C96.1508 57.789 94.5054 54.8085 93.2465 51.5927H166.903C160.987 66.704 146.563 76.6479 130.075 76.6479Z" fill="white" stroke="white"/>
</g>
</g>
<defs>
<clipPath id="clip0">
<rect width="155" height="155" rx="8" fill="white"/>
</clipPath>
</defs>
</svg>
