<svg width="155" height="155" viewBox="0 0 155 155" fill="none" xmlns="http://www.w3.org/2000/svg">
<g clip-path="url(#clip0)">
<rect width="155" height="155" rx="8" fill="#FA7345"/>
<g opacity="0.35">
<path d="M110.587 8.3864C111.034 8.86608 111.648 9.13395 112.287 9.12648C112.611 9.13395 112.933 9.07415 113.235 8.94831C113.818 8.67545 114.285 8.18456 114.546 7.57032C114.664 7.25386 114.722 6.91622 114.715 6.57483C114.721 5.90453 114.468 5.25914 114.011 4.78943C113.789 4.55146 113.525 4.36083 113.235 4.22752C112.785 4.05185 112.3 3.99827 111.826 4.07427C111.68 4.12536 111.511 4.17644 111.365 4.22752C111.219 4.2786 111.073 4.38077 110.951 4.45802C110.694 4.65986 110.465 4.90156 110.272 5.17193C110.199 5.29901 110.126 5.45226 110.053 5.60551C109.98 5.75876 109.956 5.93692 109.908 6.09017C109.888 6.25089 109.879 6.41286 109.883 6.57483C109.876 6.91622 109.934 7.25386 110.053 7.57032C110.179 7.87682 110.361 8.15341 110.587 8.3864Z" fill="white"/>
<path d="M105.44 10.1994C104.727 10.9171 104.513 12.0272 104.906 12.9803C105.023 13.2905 105.206 13.5696 105.44 13.7964C105.891 14.2885 106.513 14.5651 107.164 14.5626C107.481 14.5564 107.794 14.4866 108.087 14.3583C108.382 14.235 108.647 14.0431 108.863 13.7964C109.09 13.5634 109.271 13.2856 109.398 12.9803C109.752 12.0234 109.544 10.937 108.863 10.1994C107.904 9.24131 106.399 9.24131 105.44 10.1994Z" fill="white"/>
<path d="M103.715 15.6077C103.267 15.1206 102.649 14.8452 102.004 14.8452C101.358 14.8452 100.741 15.1206 100.292 15.6077C100.052 15.8395 99.8691 16.1285 99.7577 16.45C99.6332 16.7565 99.568 17.0866 99.5632 17.4193C99.5703 18.1008 99.8324 18.7512 100.292 19.2309C100.75 19.6944 101.357 19.9585 101.991 19.971C102.635 19.966 103.253 19.7018 103.715 19.2309C104.168 18.7487 104.422 18.0971 104.42 17.4193C104.424 17.0879 104.367 16.759 104.25 16.45C104.13 16.1335 103.948 15.8469 103.715 15.6077Z" fill="white"/>
<path d="M112.287 19.971C112.612 19.9672 112.934 19.8987 113.235 19.7679C113.524 19.6433 113.788 19.4614 114.011 19.2309C114.464 18.7487 114.717 18.0971 114.716 17.4193C114.72 17.0879 114.662 16.759 114.546 16.45C114.425 16.1335 114.244 15.8469 114.011 15.6077C113.562 15.1206 112.944 14.8452 112.299 14.8452C111.654 14.8452 111.037 15.1206 110.587 15.6077C110.355 15.8469 110.173 16.1335 110.054 16.45C109.929 16.7565 109.863 17.0866 109.859 17.4193C109.869 18.8247 110.95 19.9622 112.287 19.971Z" fill="white"/>
<path d="M108.863 21.0176C107.899 20.0732 106.404 20.0732 105.44 21.0176C105.2 21.2494 105.017 21.5384 104.906 21.8599C104.781 22.1664 104.715 22.4965 104.711 22.8292C104.705 23.8658 105.297 24.8027 106.209 25.2014C107.119 25.5988 108.168 25.3771 108.863 24.6407C109.316 24.1586 109.57 23.507 109.568 22.8292C109.572 22.4978 109.514 22.1676 109.398 21.8599C109.278 21.5434 109.096 21.2556 108.863 21.0176Z" fill="white"/>
<path d="M117.459 3.71832C117.774 3.7233 118.089 3.66225 118.382 3.53891C118.673 3.40684 118.936 3.21621 119.159 2.97824C119.393 2.75149 119.575 2.4724 119.693 2.16092C119.815 1.85443 119.881 1.5255 119.887 1.1916C119.89 0.508834 119.626 -0.145273 119.159 -0.619967C118.944 -0.865413 118.678 -1.05728 118.382 -1.18188C117.472 -1.55939 116.435 -1.34011 115.735 -0.619967C115.274 -0.142781 115.02 0.512572 115.031 1.1916C115.031 1.86564 115.288 2.51227 115.744 2.98696C116.2 3.46166 116.818 3.72455 117.459 3.71832Z" fill="white"/>
<path d="M98.5686 -0.620084C98.4524 -0.7372 98.3315 -0.848086 98.2034 -0.951498C98.0635 -1.03871 97.9177 -1.11471 97.7671 -1.18199L97.3296 -1.33399C96.8565 -1.43865 96.3645 -1.38508 95.9211 -1.18199C95.6211 -1.05242 95.3484 -0.861792 95.1208 -0.620084C94.6797 -0.139159 94.4284 0.49875 94.4165 1.16656C94.4201 1.33725 94.4367 1.50794 94.4651 1.67614C94.5327 2.00382 94.656 2.31405 94.8291 2.59563L95.1208 2.97813C95.3555 3.21111 95.6258 3.40049 95.9211 3.53879C96.2151 3.66213 96.5281 3.72318 96.8447 3.7182C97.0071 3.72568 97.1707 3.70948 97.3296 3.66712C97.479 3.63597 97.6248 3.59361 97.7671 3.53879C97.9177 3.46403 98.0635 3.37931 98.2034 3.28338C98.3374 3.19741 98.4595 3.09524 98.5686 2.97813C98.6729 2.85603 98.7701 2.72894 98.8591 2.59563C99.0333 2.31405 99.1567 2.00382 99.2242 1.67614C99.2515 1.50794 99.2681 1.33725 99.2728 1.16656C99.2811 0.83141 99.2147 0.49875 99.0784 0.195992C98.9598 -0.108012 98.7867 -0.385851 98.5686 -0.620084Z" fill="white"/>
<path d="M108.863 -0.619821C108.748 -0.736936 108.626 -0.847822 108.499 -0.951232C108.367 -1.03845 108.229 -1.11445 108.087 -1.18173C107.941 -1.23156 107.771 -1.28264 107.625 -1.33373C107.152 -1.43714 106.66 -1.38356 106.217 -1.18173C105.632 -0.907625 105.165 -0.416738 104.906 0.196249C104.781 0.503989 104.715 0.832908 104.711 1.16681C104.716 1.3375 104.731 1.50819 104.76 1.67639C104.808 1.82964 104.857 2.0078 104.906 2.16105C104.968 2.3118 105.042 2.45633 105.124 2.59587C105.222 2.72918 105.328 2.85626 105.44 2.97836C105.662 3.21633 105.925 3.40696 106.217 3.53902C106.51 3.66237 106.824 3.72342 107.139 3.71843C107.303 3.72591 107.467 3.70971 107.625 3.66735C107.782 3.6362 107.936 3.59384 108.087 3.53902C108.229 3.46427 108.368 3.3783 108.499 3.28361C108.764 3.10794 108.988 2.87371 109.155 2.59587C109.245 2.45633 109.326 2.3118 109.398 2.16105C109.449 2.00282 109.49 1.84085 109.519 1.67639C109.559 1.50944 109.576 1.3375 109.568 1.16681C109.572 0.834155 109.514 0.505235 109.398 0.196249C109.271 -0.108998 109.09 -0.386836 108.863 -0.619821Z" fill="white"/>
<path d="M104.25 5.60574C104.184 5.45249 104.102 5.30797 104.007 5.17216C103.931 5.02763 103.833 4.89806 103.715 4.78966C103.6 4.6713 103.479 4.56041 103.351 4.45825C103.205 4.381 103.085 4.305 102.939 4.22775C102.793 4.15175 102.623 4.12559 102.477 4.0745C101.675 3.92873 100.854 4.19411 100.267 4.78966C100.17 4.89183 100.073 5.04508 99.977 5.17216C99.8798 5.30174 99.8063 5.44876 99.7577 5.60574C99.6877 5.75899 99.6391 5.92221 99.6118 6.09041C99.5846 6.25113 99.568 6.4131 99.5632 6.57507C99.5644 6.9177 99.6308 7.25534 99.7577 7.57056C99.8751 7.87581 100.049 8.15241 100.267 8.38664C100.503 8.61963 100.774 8.81026 101.069 8.94855C101.218 9.00587 101.374 9.04823 101.53 9.07564C101.681 9.118 101.836 9.13544 101.991 9.12672C102.639 9.13918 103.262 8.87131 103.715 8.38664C104.173 7.90696 104.427 7.2541 104.42 6.57507C104.428 6.41185 104.411 6.24864 104.371 6.09041C104.342 5.92594 104.302 5.76398 104.25 5.60574Z" fill="white"/>
<path d="M99.1021 11.0154C99.031 10.8659 98.9492 10.7201 98.8591 10.5818C98.7844 10.4373 98.686 10.3077 98.5686 10.1993C98.3409 9.95511 98.0683 9.76324 97.7671 9.6374C96.8565 9.25865 95.8191 9.47917 95.1208 10.1993C95.0235 10.3002 94.9263 10.4535 94.8291 10.5818C94.656 10.8621 94.5327 11.1736 94.4651 11.5C94.4367 11.6682 94.4201 11.8389 94.4165 12.0108C94.4284 12.6774 94.6797 13.3153 95.1208 13.7962C95.5772 14.2796 96.1961 14.555 96.8447 14.5625C97.1612 14.5575 97.4754 14.4889 97.7671 14.3581C98.073 14.241 98.3481 14.0491 98.5686 13.7962C99.0239 13.3265 99.2788 12.6811 99.2729 12.0108C99.28 11.8389 99.2646 11.667 99.2242 11.5C99.1946 11.3356 99.1543 11.1736 99.1021 11.0154Z" fill="white"/>
<path d="M117.459 14.5625C117.777 14.5576 118.09 14.489 118.382 14.3582C118.966 14.0841 119.433 13.5932 119.693 12.9803C119.817 12.6738 119.884 12.3436 119.887 12.0109C119.89 11.327 119.627 10.6729 119.159 10.1994C118.586 9.60139 117.766 9.34349 116.974 9.51044C116.817 9.54034 116.662 9.5827 116.512 9.63752C116.367 9.71352 116.245 9.79076 116.099 9.86676C115.842 10.0698 115.613 10.3103 115.42 10.5819C115.346 10.7352 115.274 10.8622 115.201 11.0155C115.15 11.1737 115.109 11.3357 115.08 11.5001C115.039 11.6671 115.023 11.839 115.031 12.0109C115.025 12.6812 115.279 13.3266 115.735 13.7963C116.187 14.2884 116.809 14.565 117.459 14.5625Z" fill="white"/>
<path d="M120.883 8.38657C121.11 8.63077 121.382 8.82264 121.685 8.94848C121.977 9.07183 122.292 9.13163 122.607 9.12665C123.252 9.12914 123.872 8.86376 124.331 8.38657C124.55 8.15233 124.723 7.87574 124.841 7.57048C124.965 7.25526 125.032 6.91762 125.035 6.57499C125.03 5.90717 124.778 5.26551 124.331 4.78957C123.629 4.07316 122.595 3.85388 121.685 4.22766C121.382 4.35349 121.11 4.54537 120.883 4.78957C120.427 5.25929 120.173 5.90468 120.179 6.57499C120.172 6.91637 120.23 7.25402 120.348 7.57048C120.475 7.87698 120.657 8.15358 120.883 8.38657Z" fill="white"/>
<path d="M126.831 3.53886C127.125 3.66221 127.438 3.72326 127.755 3.71827C128.731 3.71329 129.609 3.09531 129.985 2.14965C130.361 1.20274 130.162 0.112548 129.479 -0.62006C128.777 -1.33522 127.743 -1.55451 126.831 -1.18198C126.526 -1.06486 126.25 -0.871738 126.031 -0.62006C125.09 0.375439 125.09 1.98269 126.031 2.97819C126.258 3.22239 126.53 3.41302 126.831 3.53886Z" fill="white"/>
<path d="M137.888 63.7281L119.392 69.2812C118.825 69.452 118.434 69.9964 118.434 70.6159V85.2701C117.634 84.7705 116.722 84.5041 115.792 84.4987C112.874 84.4987 110.508 86.9844 110.508 90.0518C110.508 93.1185 112.874 95.6049 115.792 95.6049C118.71 95.6049 121.076 93.1185 121.076 90.0518V77.2184L136.93 72.4896V79.717C136.13 79.2174 135.218 78.951 134.287 78.9456C131.369 78.9456 129.003 81.4313 129.003 84.4987C129.003 87.5654 131.369 90.0518 134.287 90.0518C137.206 90.0518 139.572 87.5654 139.572 84.4987V65.0628C139.572 64.627 139.377 64.2168 139.046 63.9545C138.715 63.6922 138.286 63.6088 137.888 63.7281ZM115.792 92.8284C114.333 92.8284 113.15 91.5851 113.15 90.0518C113.15 88.5178 114.333 87.2753 115.792 87.2753C117.251 87.2753 118.434 88.5178 118.434 90.0518C118.434 91.5851 117.251 92.8284 115.792 92.8284ZM121.076 74.332V71.6626L136.93 66.9032V69.6052L121.076 74.332ZM134.287 87.2753C132.828 87.2753 131.645 86.032 131.645 84.4987C131.645 82.9647 132.828 81.7221 134.287 81.7221C135.747 81.7221 136.93 82.9647 136.93 84.4987C136.93 86.032 135.747 87.2753 134.287 87.2753Z" fill="white"/>
<path fill-rule="evenodd" clip-rule="evenodd" d="M189.665 85.0494L189.663 85.0487C190.672 82.2404 190.027 79.0721 188.012 76.9441L186.242 75.0839C188.498 72.166 188.395 67.956 186 65.164L145.002 17.504L148.521 13.8062C148.976 13.3277 149.232 12.6786 149.232 12.0008C149.232 11.3243 148.976 10.6752 148.521 10.1968L141.654 2.98044C141.199 2.502 140.581 2.23289 139.937 2.23289C139.467 2.24659 139.011 2.40732 138.628 2.69388C135.913 -11.0373 123.969 -20.5549 110.654 -19.5968C97.3398 -18.6399 86.7403 -7.50268 85.8297 6.49017C84.9191 20.4818 93.9761 33.0331 107.043 35.8862C106.77 36.2887 106.617 36.7671 106.603 37.2617C106.603 37.9383 106.859 38.5874 107.314 39.0658L114.182 46.2809C114.637 46.7606 115.255 47.0297 115.9 47.0297C116.545 47.0297 117.162 46.7606 117.618 46.2809L121.133 42.5843L166.499 85.6729C169.146 88.2133 173.169 88.323 175.937 85.9283L177.71 87.791C179.979 90.1927 183.483 90.7168 186.295 89.0942L189.665 85.0494ZM120.263 -13.0607C112.212 -16.2926 103.105 -14.2505 97.0125 -7.84655C90.9125 -1.44505 88.9645 8.12606 92.0376 16.5895C95.1108 25.053 102.631 30.8266 111.239 31.3312L112.453 30.0554C111.757 30.7867 110.71 31.0035 109.801 30.6061C108.893 30.2074 108.303 29.2729 108.308 28.2388C108.312 27.9049 108.378 27.576 108.502 27.2695C108.634 26.9593 108.814 26.674 109.036 26.4273C109.616 25.8392 110.43 25.5825 111.221 25.7383C111.381 25.7657 111.536 25.8168 111.683 25.8915C111.832 25.9426 111.972 26.0199 112.096 26.1208C112.227 26.2105 112.349 26.3127 112.46 26.4273C112.915 26.9107 113.176 27.5586 113.188 28.2388C113.179 28.9121 112.921 29.5559 112.469 30.0334L117.599 24.6431C117.144 25.1128 116.535 25.377 115.898 25.3807C115.574 25.3745 115.252 25.306 114.951 25.1764C114.662 25.053 114.397 24.8711 114.174 24.6406C113.722 24.1585 113.468 23.5069 113.47 22.8291C113.465 22.4977 113.524 22.1675 113.64 21.8598C113.761 21.5433 113.942 21.2555 114.174 21.0175C115.128 20.0445 116.644 20.0445 117.599 21.0175C117.838 21.2493 118.021 21.5383 118.132 21.8598C118.257 22.1663 118.323 22.4964 118.327 22.8291C118.318 23.5034 118.06 24.1482 117.608 24.6257L122.697 19.277C122.245 19.7081 121.661 19.9523 121.051 19.966C120.733 19.9622 120.42 19.8925 120.129 19.7616C119.828 19.6445 119.555 19.4626 119.327 19.2259C119.113 18.973 118.934 18.6889 118.793 18.3849C118.566 17.7595 118.566 17.0692 118.793 16.445C119.041 15.8084 119.523 15.3038 120.129 15.0421C120.719 14.7867 121.382 14.7867 121.974 15.0421C122.264 15.1891 122.533 15.3785 122.775 15.6028C122.999 15.8432 123.173 16.1298 123.285 16.445C123.409 16.7515 123.476 17.0817 123.479 17.4143C123.466 18.056 123.233 18.6702 122.824 19.1449L127.914 13.7958C127.458 14.272 126.846 14.5426 126.204 14.5512C125.886 14.5475 125.573 14.479 125.28 14.3481C124.974 14.231 124.699 14.0379 124.48 13.7862C124.033 13.3091 123.78 12.6687 123.776 11.9996C123.782 11.6582 123.847 11.3218 123.969 11.0054C124.088 10.7001 124.261 10.4235 124.48 10.188C124.706 9.94509 124.979 9.75322 125.28 9.62738C126.192 9.25361 127.226 9.47289 127.928 10.188C128.146 10.4235 128.32 10.7001 128.438 11.0054C128.56 11.3218 128.626 11.6582 128.632 11.9996C128.627 12.6687 128.376 13.3091 127.93 13.7862L133.059 8.39561C132.604 8.87087 131.993 9.14278 131.351 9.15269C130.705 9.13898 130.087 8.86488 129.627 8.38645C129.519 8.26934 129.42 8.14101 129.336 8.00396C129.239 7.87438 129.166 7.72736 129.117 7.57038C129.047 7.41713 128.998 7.25392 128.971 7.08572C128.943 6.91752 128.926 6.74683 128.923 6.5749C128.928 5.90709 129.181 5.26544 129.627 4.7895C129.863 4.55652 130.133 4.36714 130.428 4.2276C131.498 3.76661 132.728 4.16156 133.37 5.172C134.012 6.18368 133.887 7.52926 133.07 8.39019L134.284 7.11438C133.805 -1.92846 128.313 -9.83004 120.263 -13.0607ZM112.465 37.2617L115.901 40.8699L139.937 15.6078L143.371 12.0021L139.937 8.39268L112.465 37.2617ZM124.571 38.9711L169.756 81.8866C170.711 82.7949 172.175 82.76 173.092 81.8081L182.318 72.1112C183.234 71.1506 183.271 69.6044 182.404 68.5952L141.568 21.1097L124.571 38.9711ZM179.427 82.3787L181.143 84.1828C182.092 85.1795 183.63 85.1796 184.578 84.1816C185.526 83.1848 185.526 81.5689 184.577 80.5722L182.863 78.7681L179.427 82.3787Z" fill="white"/>
</g>
</g>
<defs>
<clipPath id="clip0">
<rect width="155" height="155" rx="8" fill="white"/>
</clipPath>
</defs>
</svg>
