<svg width="154" height="154" viewBox="0 0 154 154" fill="none" xmlns="http://www.w3.org/2000/svg">
<g clip-path="url(#clip0)">
<rect width="154" height="154" rx="8" fill="#EEB82F"/>
<g opacity="0.35">
<path d="M160.566 25.2513C160.929 23.3713 161.122 21.4313 161.122 19.4469C161.122 2.49663 147.415 -11.2933 130.567 -11.2933C113.719 -11.2933 100.012 2.49663 100.012 19.4469C100.012 21.4313 100.204 23.3713 100.567 25.2513C90.2758 30.1956 83.16 40.6773 83.16 52.7797C83.16 60.9412 86.3711 68.6472 92.2019 74.4781C98.0328 80.3089 105.739 83.5199 113.9 83.5199C120.045 83.5199 125.77 81.6842 130.567 78.5315C135.363 81.6842 141.089 83.5199 147.233 83.5199C155.395 83.5199 163.101 80.3089 168.931 74.4781C174.762 68.6472 177.973 60.9412 177.973 52.7797C177.973 40.6773 170.857 30.1958 160.566 25.2513ZM130.567 -5.73787C144.351 -5.73787 155.566 5.55991 155.566 19.4469C155.566 20.7524 155.465 22.0346 155.271 23.2867C152.708 22.5956 150.014 22.2246 147.233 22.2246C141.089 22.2246 135.363 24.0494 130.567 27.1831C125.77 24.0494 120.045 22.2246 113.9 22.2246C111.12 22.2246 108.425 22.5956 105.862 23.2867C105.668 22.0346 105.567 20.7524 105.567 19.4469C105.567 5.55991 116.782 -5.73787 130.567 -5.73787ZM130.567 34.1633C133.428 36.7277 135.698 39.9399 137.141 43.5676C135.045 44.1395 132.841 44.4465 130.567 44.4465C128.292 44.4465 126.088 44.1395 123.993 43.5676C125.436 39.9399 127.705 36.7277 130.567 34.1633ZM118.83 41.5147C113.628 38.7366 109.516 34.1733 107.321 28.6471C109.42 28.0831 111.625 27.7801 113.9 27.7801C118.266 27.7801 122.373 28.906 125.948 30.881C122.882 33.8615 120.437 37.4772 118.83 41.5147ZM135.185 30.881C138.761 28.906 142.868 27.7801 147.233 27.7801C149.509 27.7801 151.714 28.0831 153.812 28.6471C151.617 34.1731 147.506 38.7366 142.303 41.5147C140.696 37.4772 138.251 33.8615 135.185 30.881ZM113.9 77.9645C100.013 77.9645 88.7155 66.6667 88.7155 52.7797C88.7155 43.2056 94.1665 34.8726 102.149 30.6743C104.971 37.7931 110.395 43.6071 117.24 46.9389C116.873 48.8303 116.678 50.7825 116.678 52.7797C116.678 61.4212 120.242 69.2398 125.967 74.8299C122.387 76.8262 118.274 77.9645 113.9 77.9645ZM130.567 71.534C125.455 66.9195 122.233 60.222 122.233 52.7797C122.233 51.4699 122.335 50.1834 122.53 48.9273C125.092 49.6264 127.786 50.002 130.567 50.002C133.347 50.002 136.041 49.6264 138.603 48.9273C138.798 50.1834 138.9 51.4699 138.9 52.7797C138.9 60.2218 135.678 66.9193 130.567 71.534ZM147.233 77.9645C142.86 77.9645 138.746 76.8262 135.166 74.8299C140.891 69.2398 144.455 61.4212 144.455 52.7797C144.455 50.7825 144.261 48.8303 143.893 46.9389C150.739 43.6071 156.162 37.7931 158.985 30.6743C166.967 34.8726 172.418 43.2056 172.418 52.7797C172.418 66.6667 161.12 77.9645 147.233 77.9645Z" fill="white"/>
</g>
</g>
<defs>
<clipPath id="clip0">
<rect width="154" height="154" rx="8" fill="white"/>
</clipPath>
</defs>
</svg>
