<svg width="156" height="156" viewBox="0 0 156 156" fill="none" xmlns="http://www.w3.org/2000/svg">
<g clip-path="url(#clip0)">
<rect width="156" height="156" rx="8" fill="#5445DD"/>
<g opacity="0.35">
<path d="M175.816 -3.37617L174.133 -3.79537C155.475 -8.44158 135.963 -8.44158 117.306 -3.79537L115.624 -3.37617C111.729 -2.40715 108.996 1.09245 109 5.10601V17.2807C100.308 19.743 91.9276 23.1982 84.0259 27.578L82.4994 28.419C78.9879 30.3588 77.2556 34.4466 78.3031 38.3193L83.3916 57.3464C87.9789 74.4234 100.603 88.1913 117.218 94.2403L122.463 96.1638C128.686 98.4015 135.643 96.5335 139.907 91.4792L143.488 87.2009C146.822 83.2343 149.559 78.8024 151.612 74.0444C152.714 73.6166 153.765 73.0634 154.744 72.3975L159.317 69.1958C173.801 59.0471 182.43 42.4746 182.438 24.7888V5.10601C182.442 1.0933 179.71 -2.40629 175.816 -3.37617ZM140.811 84.9538L137.229 89.2355C133.911 93.1662 128.5 94.6193 123.66 92.8776L118.414 90.955C102.871 85.2953 91.0618 72.4154 86.77 56.4405L81.6798 37.4135C81.0531 35.0929 82.0905 32.6452 84.1941 31.4823L85.719 30.6414C93.0964 26.551 100.904 23.2904 109 20.9195V24.7888C109.012 40.4512 115.794 55.3426 127.599 65.6348C124.524 66.8847 121.277 67.665 117.968 67.9476L104.819 69.014C104.024 69.0771 103.371 69.6714 103.235 70.4585C103.098 71.2457 103.512 72.0252 104.241 72.3522L121.672 80.2205C125.468 81.9409 129.95 80.7422 132.382 77.3561L136.196 72.05L136.695 72.3992C139.341 74.2467 142.492 75.2362 145.719 75.232C146.243 75.232 146.751 75.1654 147.266 75.115C145.51 78.6376 143.343 81.94 140.811 84.9538ZM130.682 68.1261C131.159 68.4761 131.624 68.8535 132.115 69.1958L133.326 70.0428L129.535 75.3173C128.075 77.3467 125.386 78.0639 123.109 77.0309L111.854 71.9603L118.25 71.4361C122.557 71.075 126.766 69.9548 130.682 68.1261ZM178.941 24.7888C178.934 41.334 170.863 56.8358 157.313 66.3306L152.74 69.5322C148.52 72.4717 142.917 72.4717 138.699 69.5322L134.127 66.3306C120.577 56.8367 112.504 41.334 112.497 24.7888V5.10601C112.497 2.69924 114.135 0.601531 116.47 0.0175538L118.154 -0.403354C136.254 -4.9121 155.184 -4.9121 173.285 -0.403354L174.968 0.0175538C177.303 0.601531 178.941 2.69924 178.941 5.10601V24.7888Z" fill="white" stroke="white"/>
<path d="M139.237 25.3608L141.622 22.8012C136.155 17.3473 127.306 17.3473 121.839 22.8012L121.752 22.8883L124.312 25.2737C126.294 23.2904 128.989 22.1831 131.793 22.1993C134.597 22.2164 137.278 23.3545 139.237 25.3608Z" fill="white" stroke="white"/>
<path d="M149.816 22.8012L149.729 22.8883L152.288 25.2737C154.271 23.2904 156.965 22.1831 159.769 22.1993C162.574 22.2164 165.254 23.3545 167.214 25.3608L169.598 22.8012C164.132 17.3473 155.282 17.3473 149.816 22.8012Z" fill="white" stroke="white"/>
<path d="M102.933 50.7025C105.667 49.9691 108.58 50.3713 111.013 51.8175L112.643 48.7209C105.953 44.8585 97.3978 47.15 93.5345 53.8393L93.4739 53.946L94.9859 54.8202L96.5594 55.5861C97.9459 53.1716 100.241 51.4129 102.933 50.7025Z" fill="white" stroke="white"/>
<path d="M164.64 41.638L151.664 43.9986C147.733 44.7158 143.705 44.7158 139.775 43.9986L126.796 41.638C126.013 41.4954 125.231 41.9009 124.897 42.6249C124.562 43.3489 124.759 44.2069 125.377 44.7115L140.184 56.8222C143.407 59.4467 148.031 59.4467 151.255 56.8222L166.06 44.7081C166.677 44.2035 166.875 43.3455 166.54 42.6215C166.206 41.8975 165.424 41.492 164.64 41.6345V41.638ZM149.041 54.1183C147.108 55.6953 144.331 55.6953 142.397 54.1183L132.826 46.2884L139.15 47.4376C143.493 48.2316 147.943 48.2316 152.285 47.4376L158.61 46.2884L149.041 54.1183Z" fill="white" stroke="white"/>
</g>
</g>
<defs>
<clipPath id="clip0">
<rect width="156" height="156" rx="8" fill="white"/>
</clipPath>
</defs>
</svg>
