<svg width="156" height="156" viewBox="0 0 156 156" fill="none" xmlns="http://www.w3.org/2000/svg">
<g clip-path="url(#clip0)">
<rect width="156" height="156" rx="8" fill="#5445DD"/>
<path d="M19.128 113.162C17.88 113.162 16.788 112.898 15.852 112.37C14.928 111.83 14.214 111.068 13.71 110.084C13.218 109.1 12.972 107.954 12.972 106.646C12.972 105.338 13.218 104.198 13.71 103.226C14.214 102.242 14.928 101.486 15.852 100.958C16.788 100.418 17.88 100.148 19.128 100.148C19.98 100.148 20.784 100.28 21.54 100.544C22.296 100.808 22.932 101.18 23.448 101.66L22.674 103.352C22.098 102.896 21.528 102.566 20.964 102.362C20.4 102.146 19.8 102.038 19.164 102.038C17.94 102.038 16.992 102.434 16.32 103.226C15.66 104.018 15.33 105.158 15.33 106.646C15.33 108.146 15.66 109.292 16.32 110.084C16.992 110.876 17.94 111.272 19.164 111.272C19.8 111.272 20.4 111.17 20.964 110.966C21.528 110.75 22.098 110.414 22.674 109.958L23.448 111.65C22.932 112.13 22.296 112.502 21.54 112.766C20.784 113.03 19.98 113.162 19.128 113.162ZM29.2074 113.144C28.3074 113.144 27.5154 112.958 26.8314 112.586C26.1594 112.214 25.6374 111.68 25.2654 110.984C24.8934 110.288 24.7074 109.478 24.7074 108.554C24.7074 107.63 24.8934 106.826 25.2654 106.142C25.6374 105.446 26.1594 104.912 26.8314 104.54C27.5154 104.168 28.3074 103.982 29.2074 103.982C30.1074 103.982 30.8934 104.168 31.5654 104.54C32.2494 104.912 32.7714 105.446 33.1314 106.142C33.5034 106.826 33.6894 107.63 33.6894 108.554C33.6894 109.478 33.5034 110.288 33.1314 110.984C32.7714 111.68 32.2494 112.214 31.5654 112.586C30.8934 112.958 30.1074 113.144 29.2074 113.144ZM29.1894 111.398C29.9214 111.398 30.4794 111.158 30.8634 110.678C31.2474 110.198 31.4394 109.49 31.4394 108.554C31.4394 107.63 31.2474 106.928 30.8634 106.448C30.4794 105.956 29.9274 105.71 29.2074 105.71C28.4874 105.71 27.9294 105.956 27.5334 106.448C27.1494 106.928 26.9574 107.63 26.9574 108.554C26.9574 109.49 27.1494 110.198 27.5334 110.678C27.9174 111.158 28.4694 111.398 29.1894 111.398ZM46.005 103.982C47.001 103.982 47.745 104.282 48.237 104.882C48.729 105.47 48.975 106.376 48.975 107.6V113H46.725V107.69C46.725 107.018 46.611 106.532 46.383 106.232C46.155 105.92 45.789 105.764 45.285 105.764C44.685 105.764 44.217 105.968 43.881 106.376C43.545 106.784 43.377 107.354 43.377 108.086V113H41.127V107.69C41.127 107.018 41.013 106.532 40.785 106.232C40.569 105.92 40.203 105.764 39.687 105.764C39.099 105.764 38.637 105.968 38.301 106.376C37.965 106.784 37.797 107.354 37.797 108.086V113H35.547V104.198H37.743V105.44C38.007 104.96 38.373 104.6 38.841 104.36C39.309 104.108 39.843 103.982 40.443 103.982C41.775 103.982 42.657 104.534 43.089 105.638C43.365 105.122 43.761 104.72 44.277 104.432C44.793 104.132 45.369 103.982 46.005 103.982ZM58.9838 109.004H52.9898C53.0618 109.82 53.3078 110.426 53.7278 110.822C54.1478 111.218 54.7478 111.416 55.5278 111.416C56.4998 111.416 57.3878 111.104 58.1918 110.48L58.8398 112.028C58.4318 112.364 57.9158 112.634 57.2918 112.838C56.6798 113.042 56.0618 113.144 55.4378 113.144C53.9978 113.144 52.8578 112.736 52.0178 111.92C51.1898 111.104 50.7758 109.988 50.7758 108.572C50.7758 107.672 50.9558 106.874 51.3158 106.178C51.6758 105.482 52.1798 104.942 52.8278 104.558C53.4878 104.174 54.2318 103.982 55.0598 103.982C56.2718 103.982 57.2258 104.372 57.9218 105.152C58.6298 105.932 58.9838 107.006 58.9838 108.374V109.004ZM55.1138 105.566C54.5138 105.566 54.0278 105.758 53.6558 106.142C53.2958 106.526 53.0738 107.078 52.9898 107.798H57.0578C57.0338 107.066 56.8538 106.514 56.5178 106.142C56.1818 105.758 55.7138 105.566 55.1138 105.566ZM69.3203 100.31V113H67.0883V111.578C66.8243 112.07 66.4403 112.454 65.9363 112.73C65.4443 113.006 64.8803 113.144 64.2443 113.144C63.4883 113.144 62.8103 112.952 62.2103 112.568C61.6223 112.184 61.1603 111.644 60.8243 110.948C60.5003 110.24 60.3383 109.43 60.3383 108.518C60.3383 107.606 60.5003 106.808 60.8243 106.124C61.1603 105.44 61.6223 104.912 62.2103 104.54C62.7983 104.168 63.4763 103.982 64.2443 103.982C64.8803 103.982 65.4443 104.114 65.9363 104.378C66.4283 104.642 66.8063 105.014 67.0703 105.494V100.31H69.3203ZM64.8383 111.398C65.5583 111.398 66.1103 111.152 66.4943 110.66C66.8903 110.168 67.0883 109.466 67.0883 108.554C67.0883 107.642 66.8903 106.946 66.4943 106.466C66.1103 105.974 65.5643 105.728 64.8563 105.728C64.1363 105.728 63.5783 105.968 63.1823 106.448C62.7863 106.928 62.5883 107.618 62.5883 108.518C62.5883 109.43 62.7863 110.138 63.1823 110.642C63.5783 111.146 64.1303 111.398 64.8383 111.398ZM77.8088 104.216H80.0228L74.7308 116.24H72.4628L74.0648 112.658L70.3928 104.216H72.7688L75.2528 110.426L77.8088 104.216Z" fill="white"/>
<path opacity="0.75" d="M16.8356 130.172H18.6956V131H13.9916V130.172H15.8516V123.764L14.3636 124.7L13.9076 123.944L16.1276 122.54H16.8356V130.172ZM20.583 129.776H21.807V131H20.583V129.776ZM29.5371 128.348V129.164H28.2651V131H27.2931V129.164H23.3811V128.42L27.4611 122.54H28.2651V128.348H29.5371ZM24.4011 128.348H27.2931V124.184L24.4011 128.348ZM38.3965 122.54H39.2005V131H38.3005L38.3125 124.448L35.5645 129.656H34.8685L32.1085 124.496L32.1205 131H31.2085V122.54H32.0245L35.2285 128.672L38.3965 122.54ZM51.008 122.54H52.016L48.32 131H47.468L43.772 122.54H44.804L47.9 129.764L51.008 122.54ZM53.1449 131V125.156H54.1169V131H53.1449ZM53.0489 122.624H54.2249V123.716H53.0489V122.624ZM61.318 122.54V131H60.346V129.932C60.17 130.3 59.91 130.584 59.566 130.784C59.23 130.984 58.834 131.084 58.378 131.084C57.866 131.084 57.414 130.956 57.022 130.7C56.63 130.444 56.326 130.088 56.11 129.632C55.894 129.168 55.786 128.632 55.786 128.024C55.786 127.424 55.894 126.896 56.11 126.44C56.326 125.984 56.63 125.632 57.022 125.384C57.414 125.136 57.866 125.012 58.378 125.012C58.834 125.012 59.23 125.112 59.566 125.312C59.91 125.512 60.17 125.796 60.346 126.164V122.54H61.318ZM58.57 130.28C59.138 130.28 59.574 130.088 59.878 129.704C60.19 129.312 60.346 128.76 60.346 128.048C60.346 127.336 60.19 126.788 59.878 126.404C59.574 126.02 59.138 125.828 58.57 125.828C58.002 125.828 57.558 126.02 57.238 126.404C56.926 126.788 56.77 127.328 56.77 128.024C56.77 128.736 56.926 129.292 57.238 129.692C57.558 130.084 58.002 130.28 58.57 130.28ZM68.2144 128.228H63.9424C63.9744 128.908 64.1584 129.424 64.4944 129.776C64.8304 130.12 65.3064 130.292 65.9224 130.292C66.6024 130.292 67.2264 130.06 67.7944 129.596L68.1184 130.304C67.8624 130.544 67.5344 130.736 67.1344 130.88C66.7344 131.016 66.3264 131.084 65.9104 131.084C64.9984 131.084 64.2784 130.816 63.7504 130.28C63.2304 129.744 62.9704 129.004 62.9704 128.06C62.9704 127.46 63.0864 126.932 63.3184 126.476C63.5504 126.012 63.8744 125.652 64.2904 125.396C64.7144 125.14 65.1944 125.012 65.7304 125.012C66.5064 125.012 67.1144 125.268 67.5544 125.78C67.9944 126.284 68.2144 126.98 68.2144 127.868V128.228ZM65.7424 125.768C65.2304 125.768 64.8184 125.928 64.5064 126.248C64.2024 126.568 64.0224 127.02 63.9664 127.604H67.3624C67.3464 127.012 67.1984 126.56 66.9184 126.248C66.6384 125.928 66.2464 125.768 65.7424 125.768ZM72.2705 131.084C71.7185 131.084 71.2305 130.96 70.8065 130.712C70.3905 130.464 70.0665 130.112 69.8345 129.656C69.6105 129.192 69.4985 128.656 69.4985 128.048C69.4985 127.44 69.6105 126.908 69.8345 126.452C70.0665 125.988 70.3905 125.632 70.8065 125.384C71.2305 125.136 71.7185 125.012 72.2705 125.012C72.8225 125.012 73.3105 125.136 73.7345 125.384C74.1585 125.632 74.4825 125.988 74.7065 126.452C74.9385 126.908 75.0545 127.44 75.0545 128.048C75.0545 128.656 74.9385 129.192 74.7065 129.656C74.4825 130.112 74.1585 130.464 73.7345 130.712C73.3105 130.96 72.8225 131.084 72.2705 131.084ZM72.2705 130.28C72.8465 130.28 73.2865 130.092 73.5905 129.716C73.9025 129.332 74.0585 128.776 74.0585 128.048C74.0585 127.336 73.9025 126.788 73.5905 126.404C73.2785 126.012 72.8385 125.816 72.2705 125.816C71.7025 125.816 71.2625 126.012 70.9505 126.404C70.6385 126.788 70.4825 127.336 70.4825 128.048C70.4825 128.768 70.6345 129.32 70.9385 129.704C71.2505 130.088 71.6945 130.28 72.2705 130.28ZM78.6827 131.084C77.6987 131.084 76.9187 130.832 76.3427 130.328L76.6667 129.608C76.9787 129.856 77.2947 130.036 77.6147 130.148C77.9427 130.252 78.3107 130.304 78.7187 130.304C79.1507 130.304 79.4787 130.232 79.7027 130.088C79.9347 129.936 80.0507 129.72 80.0507 129.44C80.0507 129.208 79.9747 129.024 79.8227 128.888C79.6707 128.752 79.4187 128.644 79.0667 128.564L78.0827 128.336C77.5867 128.224 77.2067 128.032 76.9427 127.76C76.6787 127.488 76.5467 127.152 76.5467 126.752C76.5467 126.232 76.7507 125.812 77.1587 125.492C77.5667 125.172 78.1107 125.012 78.7907 125.012C79.1987 125.012 79.5867 125.08 79.9547 125.216C80.3227 125.344 80.6307 125.532 80.8787 125.78L80.5547 126.488C80.0187 126.032 79.4307 125.804 78.7907 125.804C78.3827 125.804 78.0627 125.884 77.8307 126.044C77.6067 126.196 77.4947 126.412 77.4947 126.692C77.4947 126.924 77.5627 127.112 77.6987 127.256C77.8427 127.392 78.0707 127.496 78.3827 127.568L79.3787 127.808C79.9227 127.936 80.3267 128.132 80.5907 128.396C80.8547 128.652 80.9867 128.988 80.9867 129.404C80.9867 129.916 80.7787 130.324 80.3627 130.628C79.9547 130.932 79.3947 131.084 78.6827 131.084Z" fill="white"/>
<g opacity="0.35">
<path d="M175.816 -3.37617L174.133 -3.79537C155.475 -8.44158 135.963 -8.44158 117.306 -3.79537L115.624 -3.37617C111.729 -2.40715 108.996 1.09245 109 5.10601V17.2807C100.308 19.743 91.9276 23.1982 84.0259 27.578L82.4994 28.419C78.9879 30.3588 77.2556 34.4466 78.3031 38.3193L83.3916 57.3464C87.9789 74.4234 100.603 88.1913 117.218 94.2403L122.463 96.1638C128.686 98.4015 135.643 96.5335 139.907 91.4792L143.488 87.2009C146.822 83.2343 149.559 78.8024 151.612 74.0444C152.714 73.6166 153.765 73.0634 154.744 72.3975L159.317 69.1958C173.801 59.0471 182.43 42.4746 182.438 24.7888V5.10601C182.442 1.0933 179.71 -2.40629 175.816 -3.37617ZM140.811 84.9538L137.229 89.2355C133.911 93.1662 128.5 94.6193 123.66 92.8776L118.414 90.955C102.871 85.2953 91.0618 72.4154 86.77 56.4405L81.6798 37.4135C81.0531 35.0929 82.0905 32.6452 84.1941 31.4823L85.719 30.6414C93.0964 26.551 100.904 23.2904 109 20.9195V24.7888C109.012 40.4512 115.794 55.3426 127.599 65.6348C124.524 66.8847 121.277 67.665 117.968 67.9476L104.819 69.014C104.024 69.0771 103.371 69.6714 103.235 70.4585C103.098 71.2457 103.512 72.0252 104.241 72.3522L121.672 80.2205C125.468 81.9409 129.95 80.7422 132.382 77.3561L136.196 72.05L136.695 72.3992C139.341 74.2467 142.492 75.2362 145.719 75.232C146.243 75.232 146.751 75.1654 147.266 75.115C145.51 78.6376 143.343 81.94 140.811 84.9538ZM130.682 68.1261C131.159 68.4761 131.624 68.8535 132.115 69.1958L133.326 70.0428L129.535 75.3173C128.075 77.3467 125.386 78.0639 123.109 77.0309L111.854 71.9603L118.25 71.4361C122.557 71.075 126.766 69.9548 130.682 68.1261ZM178.941 24.7888C178.934 41.334 170.863 56.8358 157.313 66.3306L152.74 69.5322C148.52 72.4717 142.917 72.4717 138.699 69.5322L134.127 66.3306C120.577 56.8367 112.504 41.334 112.497 24.7888V5.10601C112.497 2.69924 114.135 0.601531 116.47 0.0175538L118.154 -0.403354C136.254 -4.9121 155.184 -4.9121 173.285 -0.403354L174.968 0.0175538C177.303 0.601531 178.941 2.69924 178.941 5.10601V24.7888Z" fill="white" stroke="white"/>
<path d="M139.237 25.3608L141.622 22.8012C136.155 17.3473 127.306 17.3473 121.839 22.8012L121.752 22.8883L124.312 25.2737C126.294 23.2904 128.989 22.1831 131.793 22.1993C134.597 22.2164 137.278 23.3545 139.237 25.3608Z" fill="white" stroke="white"/>
<path d="M149.816 22.8012L149.729 22.8883L152.288 25.2737C154.271 23.2904 156.965 22.1831 159.769 22.1993C162.574 22.2164 165.254 23.3545 167.214 25.3608L169.598 22.8012C164.132 17.3473 155.282 17.3473 149.816 22.8012Z" fill="white" stroke="white"/>
<path d="M102.933 50.7025C105.667 49.9691 108.58 50.3713 111.013 51.8175L112.643 48.7209C105.953 44.8585 97.3978 47.15 93.5345 53.8393L93.4739 53.946L94.9859 54.8202L96.5594 55.5861C97.9459 53.1716 100.241 51.4129 102.933 50.7025Z" fill="white" stroke="white"/>
<path d="M164.64 41.638L151.664 43.9986C147.733 44.7158 143.705 44.7158 139.775 43.9986L126.796 41.638C126.013 41.4954 125.231 41.9009 124.897 42.6249C124.562 43.3489 124.759 44.2069 125.377 44.7115L140.184 56.8222C143.407 59.4467 148.031 59.4467 151.255 56.8222L166.06 44.7081C166.677 44.2035 166.875 43.3455 166.54 42.6215C166.206 41.8975 165.424 41.492 164.64 41.6345V41.638ZM149.041 54.1183C147.108 55.6953 144.331 55.6953 142.397 54.1183L132.826 46.2884L139.15 47.4376C143.493 48.2316 147.943 48.2316 152.285 47.4376L158.61 46.2884L149.041 54.1183Z" fill="white" stroke="white"/>
</g>
</g>
<defs>
<clipPath id="clip0">
<rect width="156" height="156" rx="8" fill="white"/>
</clipPath>
</defs>
</svg>
