<svg width="156" height="156" viewBox="0 0 156 156" fill="none" xmlns="http://www.w3.org/2000/svg">
<g clip-path="url(#clip0)">
<rect width="156" height="156" rx="8" fill="#24D19D"/>
<g opacity="0.35">
<path fill-rule="evenodd" clip-rule="evenodd" d="M181.359 31.0618H107.765L178.453 10.5846C179.002 10.4254 179.466 10.0538 179.742 9.55328C180.019 9.05192 180.084 8.46209 179.925 7.91271L176.226 -4.85711C174.748 -9.95745 169.999 -13.52 164.677 -13.52C163.556 -13.52 162.438 -13.3608 161.355 -13.0473L94.9862 6.17861C91.9166 7.06757 89.3727 9.10838 87.8214 11.9236C86.271 14.7387 85.907 17.9803 86.796 21.0491L90.41 33.5248V84.9184C90.41 91.5379 95.7951 96.9231 102.414 96.9231H128.334C129.526 96.9231 130.491 95.9574 130.491 94.766C130.491 93.5745 129.526 92.6089 128.334 92.6089H102.415C98.1738 92.6089 94.7241 89.1592 94.7241 84.9184V55.5634H105.775H105.78H105.784H122.677H122.682H122.687H139.58H139.585H139.59H156.483H156.488H156.492H179.202V84.9184C179.202 89.1592 175.752 92.6089 171.512 92.6089H145.591C144.4 92.6089 143.434 93.5745 143.434 94.766C143.434 95.9574 144.4 96.9231 145.591 96.9231H171.512C178.131 96.9231 183.516 91.5379 183.516 84.9184V33.2189C183.516 32.0275 182.551 31.0618 181.359 31.0618ZM143.323 51.2492L152.488 35.376H164.408L155.244 51.2492H143.323ZM126.42 51.2492L135.585 35.376H147.505L138.341 51.2492H126.42ZM109.518 51.2492L118.682 35.376H130.603L121.438 51.2492H109.518ZM117.538 23.3241L102.191 8.58343L113.69 5.25258C113.771 5.37054 113.865 5.48177 113.973 5.58541L129.32 20.3261L117.821 23.657C117.74 23.539 117.645 23.4269 117.538 23.3241ZM146.443 -3.82069L161.79 10.92L150.291 14.2509C150.21 14.1329 150.116 14.0208 150.008 13.918L134.661 -0.822669L146.16 -4.15352C146.241 -4.03556 146.335 -3.92433 146.443 -3.82069ZM130.207 0.882781L145.555 15.6226L134.056 18.9543C133.975 18.8364 133.88 18.7243 133.773 18.6215L118.425 3.8808L129.924 0.549949C130.006 0.667072 130.1 0.77914 130.207 0.882781ZM162.555 -8.90334C163.248 -9.10388 163.962 -9.20584 164.677 -9.20584C168.091 -9.20584 171.135 -6.92404 172.082 -3.65638L175.181 7.0406L166.527 9.54738C166.445 9.42941 166.351 9.31819 166.243 9.21455L150.896 -5.5253L162.555 -8.90334ZM91.6006 14.0048C92.5949 12.1991 94.2236 10.8913 96.1869 10.3226L97.4542 9.95521C97.5359 10.0732 97.6303 10.1852 97.7373 10.288L113.085 25.0287L94.0391 30.5462L90.94 19.8492C90.3712 17.8867 90.6063 15.8114 91.6006 14.0048ZM94.7241 35.376H113.701L104.536 51.2492H94.7241V35.376ZM160.226 51.2492L169.39 35.376H179.202V51.2492H160.226Z" fill="white"/>
<path fill-rule="evenodd" clip-rule="evenodd" d="M151.879 73.8669C151.879 73.0959 151.468 72.3839 150.8 71.9988L131.849 61.0575C131.182 60.6724 130.359 60.6724 129.692 61.0575C129.025 61.4426 128.613 62.1546 128.613 62.9256V84.8083C128.613 85.5784 129.025 86.2904 129.692 86.6755C130.026 86.8684 130.398 86.9653 130.77 86.9653C131.143 86.9653 131.515 86.8684 131.849 86.6755L150.8 75.735C151.468 75.3499 151.879 74.6379 151.879 73.8669ZM132.928 81.0721V66.6617L145.408 73.8669L132.928 81.0721Z" fill="white"/>
<path fill-rule="evenodd" clip-rule="evenodd" d="M136.963 92.609C135.775 92.609 134.806 93.578 134.806 94.7661C134.806 95.9542 135.775 96.9232 136.963 96.9232C138.152 96.9232 139.12 95.9542 139.12 94.7661C139.12 93.578 138.152 92.609 136.963 92.609Z" fill="white"/>
</g>
</g>
<defs>
<clipPath id="clip0">
<rect width="156" height="156" rx="8" fill="white"/>
</clipPath>
</defs>
</svg>
