<svg width="154" height="154" viewBox="0 0 154 154" fill="none" xmlns="http://www.w3.org/2000/svg">
<rect width="154" height="154" rx="8" fill="#E2ACF4"/>
<g clip-path="url(#clip0)">
<path d="M109.044 12.3133C111.437 8.55238 112.512 14.0685 112.512 14.0685V24.8494H104.398C104.385 16.5417 107.004 15.519 109.044 12.3133ZM103.324 28.3598C103.324 27.2331 103.772 26.2465 104.43 25.731C104.429 25.6867 104.428 25.6451 104.427 25.6017H112.512V25.675L112.51 25.6768C113.21 26.1741 113.693 27.1906 113.693 28.3598V55.4385H103.324V28.3598ZM116.017 73.5794C116.017 75.4612 115.052 77.0003 113.872 77.0003H103.145C101.966 77.0003 101 75.4603 101 73.5794V59.6109C101 57.7291 101.966 56.19 103.145 56.19H103.324H113.693H113.872C115.052 56.19 116.017 57.7291 116.017 59.6109V73.5794H116.017ZM132 77.0003H120.488V34.8191C120.488 33.1642 121.454 31.8105 122.633 31.8105H129.854C131.034 31.8105 131.999 33.1642 131.999 34.8191V77.0003H132Z" fill="#A871A6"/>
</g>
<defs>
<clipPath id="clip0">
<rect width="31" height="66" fill="white" transform="translate(101 11)"/>
</clipPath>
</defs>
</svg>
