<svg width="154" height="154" viewBox="0 0 154 154" fill="none" xmlns="http://www.w3.org/2000/svg">
<g clip-path="url(#clip0)">
<rect width="154" height="154" rx="8" fill="#BC2FEE"/>
<path d="M159.811 72.471H90.1888C85.6768 72.471 82 68.7626 82 64.2069V35.9302C82 33.7221 82.85 31.6486 84.3969 30.0885L107.866 6.42243C109.413 4.86231 111.474 4 113.658 4C114.671 4 115.66 4.18941 116.604 4.55327L162.752 22.5022C165.885 23.7234 167.995 26.8187 167.995 30.2081V64.2069C168 68.7626 164.323 72.471 159.811 72.471ZM113.658 7.81308C112.482 7.81308 111.37 8.27664 110.54 9.119L87.0705 32.785C86.2402 33.6274 85.7806 34.7439 85.7806 35.9302V64.2069C85.7806 66.6592 87.7574 68.653 90.1888 68.653H159.806C162.238 68.653 164.214 66.6592 164.214 64.2069V30.2131C164.214 28.3888 163.083 26.719 161.393 26.0611L115.245 8.11215C114.736 7.91277 114.202 7.81308 113.658 7.81308ZM153.51 40.471H96.4898C95.7238 40.471 95.0369 40.0075 94.7453 39.2947C94.4537 38.5819 94.6119 37.7595 95.1555 37.2162L113.881 18.3302C114.409 17.7969 115.2 17.6274 115.897 17.9016L154.187 32.795C154.919 33.0791 155.398 33.7869 155.398 34.5745V38.567C155.398 39.6187 154.553 40.471 153.51 40.471ZM101.051 36.6579H151.617V35.8804L115.684 21.904L101.051 36.6579Z" fill="#BB65FF"/>
<path d="M100.488 116C95.6101 116 91.6417 111.998 91.6417 107.078V94.9807C91.6417 90.0611 95.6101 86.0586 100.488 86.0586C105.366 86.0586 109.334 90.0611 109.334 94.9807V107.078C109.334 111.998 105.366 116 100.488 116ZM100.488 89.8717C97.6956 89.8717 95.4223 92.1645 95.4223 94.9807V107.078C95.4223 109.894 97.6956 112.187 100.488 112.187C103.28 112.187 105.553 109.894 105.553 107.078V94.9807C105.553 92.1645 103.28 89.8717 100.488 89.8717Z" fill="#BB65FF"/>
<path d="M100.488 116C99.4452 116 98.6001 115.148 98.6001 114.096V70.567C98.6001 69.5153 99.4452 68.663 100.488 68.663C101.531 68.663 102.376 69.5153 102.376 70.567V114.096C102.376 115.143 101.531 116 100.488 116Z" fill="#BB65FF"/>
<path d="M92.6647 26.3552C92.3978 26.3552 92.131 26.3004 91.874 26.1808C90.9251 25.7421 90.515 24.6057 90.9498 23.6537L95.6348 13.4156C96.0697 12.4586 97.1915 12.0449 98.1404 12.4836L101.886 14.2231C102.835 14.6618 103.25 15.7932 102.815 16.7502C102.381 17.7072 101.259 18.1259 100.31 17.6873L98.2837 16.7452L94.3894 25.2537C94.0633 25.9465 93.3763 26.3552 92.6647 26.3552Z" fill="#BB65FF"/>
<path d="M101.091 57.5377H98.0663C97.0235 57.5377 96.1785 56.6853 96.1785 55.6336V47.5289C96.1785 46.4772 97.0235 45.6249 98.0663 45.6249H101.091C102.134 45.6249 102.979 46.4772 102.979 47.5289V55.6286C102.984 56.6853 102.138 57.5377 101.091 57.5377Z" fill="#BB65FF"/>
<path d="M112.532 57.5377H109.502C108.459 57.5377 107.614 56.6853 107.614 55.6336V47.5289C107.614 46.4772 108.459 45.6249 109.502 45.6249H112.532C113.574 45.6249 114.419 46.4772 114.419 47.5289V55.6286C114.424 56.6853 113.574 57.5377 112.532 57.5377Z" fill="#BB65FF"/>
<path d="M123.873 57.5377H120.844C119.801 57.5377 118.951 56.6853 118.951 55.6336V47.5289C118.951 46.4772 119.796 45.6249 120.844 45.6249H123.868C124.911 45.6249 125.756 46.4772 125.756 47.5289V55.6286C125.761 56.6853 124.916 57.5377 123.873 57.5377Z" fill="#BB65FF"/>
</g>
<defs>
<clipPath id="clip0">
<rect width="154" height="154" rx="8" fill="white"/>
</clipPath>
</defs>
</svg>
